<svg xmlns="http://www.w3.org/2000/svg" viewBox="0 0 512 512" width="512" height="512" fill="none">

  <defs><radialGradient id="gamepass-sh1" cx="0.5" cy="0.5" r="0.5">
    <stop offset="0" stop-color="#0b1220" stop-opacity="0.4"/>
    <stop offset="0.6" stop-color="#0b1220" stop-opacity="0.16000000000000003"/>
    <stop offset="1" stop-color="#0b1220" stop-opacity="0"/>
  </radialGradient></defs>
  <ellipse cx="256" cy="388" rx="118" ry="24" fill="url(#gamepass-sh1)"/>
  <defs>
    <linearGradient id="gamepass-g2" x1="0.15" y1="0" x2="0.85" y2="1">
      <stop offset="0" stop-color="#86c799"/>
      <stop offset="0.5" stop-color="#2f9e4f"/>
      <stop offset="1" stop-color="#267e3f"/>
    </linearGradient>
    <clipPath id="gamepass-c3"><path d="M196 126H316A52 52 0 0 1 368 178V298A52 52 0 0 1 316 350H196A52 52 0 0 1 144 298V178A52 52 0 0 1 196 126Z"/></clipPath>
    <radialGradient id="gamepass-p4" cx="0.5" cy="0.5" r="0.5">
      <stop offset="0" stop-color="#fff" stop-opacity="0.72"/>
      <stop offset="1" stop-color="#fff" stop-opacity="0"/>
    </radialGradient>
  </defs>
  <defs><path id="gamepass-s5" d="M196 126H316A52 52 0 0 1 368 178V298A52 52 0 0 1 316 350H196A52 52 0 0 1 144 298V178A52 52 0 0 1 196 126Z"/></defs><use href="#gamepass-s5" y="26" fill="#154724"/><use href="#gamepass-s5" y="25" fill="#164925"/><use href="#gamepass-s5" y="24" fill="#164a26"/><use href="#gamepass-s5" y="23" fill="#174c26"/><use href="#gamepass-s5" y="22" fill="#174e27"/><use href="#gamepass-s5" y="21" fill="#184f28"/><use href="#gamepass-s5" y="20" fill="#185129"/><use href="#gamepass-s5" y="19" fill="#19532a"/><use href="#gamepass-s5" y="18" fill="#19542a"/><use href="#gamepass-s5" y="17" fill="#1a562b"/><use href="#gamepass-s5" y="16" fill="#1a582c"/><use href="#gamepass-s5" y="15" fill="#1b592d"/><use href="#gamepass-s5" y="14" fill="#1b5b2e"/><use href="#gamepass-s5" y="13" fill="#1c5d2f"/><use href="#gamepass-s5" y="12" fill="#1c5e2f"/><use href="#gamepass-s5" y="11" fill="#1d6030"/><use href="#gamepass-s5" y="10" fill="#1d6131"/><use href="#gamepass-s5" y="9" fill="#1e6332"/><use href="#gamepass-s5" y="8" fill="#1e6533"/><use href="#gamepass-s5" y="7" fill="#1f6633"/><use href="#gamepass-s5" y="6" fill="#1f6834"/><use href="#gamepass-s5" y="5" fill="#206a35"/><use href="#gamepass-s5" y="4" fill="#206b36"/><use href="#gamepass-s5" y="3" fill="#216d37"/><use href="#gamepass-s5" y="2" fill="#216f37"/><use href="#gamepass-s5" y="1" fill="#227038"/>
  <path d="M196 126H316A52 52 0 0 1 368 178V298A52 52 0 0 1 316 350H196A52 52 0 0 1 144 298V178A52 52 0 0 1 196 126Z" fill="url(#gamepass-g2)"/>
  <path d="M196 126H316A52 52 0 0 1 368 178V298A52 52 0 0 1 316 350H196A52 52 0 0 1 144 298V178A52 52 0 0 1 196 126Z" fill="none" stroke="#a1d3b0" stroke-opacity="0.75" stroke-width="3"/>
  <g clip-path="url(#gamepass-c3)"><ellipse cx="216" cy="172" rx="96" ry="54"
      fill="url(#gamepass-p4)" transform="rotate(-24 216 172)"/></g><g fill="#f0fff5" opacity="0.92">
    <rect x="204" y="230" width="26" height="58" rx="13"/>
    <rect x="243" y="192" width="26" height="96" rx="13"/>
    <rect x="282" y="214" width="26" height="74" rx="13"/>
  </g>
</svg>
