<svg xmlns="http://www.w3.org/2000/svg" viewBox="0 0 512 512" width="512" height="512" fill="none">

  <defs><radialGradient id="giftcard-sh1" cx="0.5" cy="0.5" r="0.5">
    <stop offset="0" stop-color="#0b1220" stop-opacity="0.4"/>
    <stop offset="0.6" stop-color="#0b1220" stop-opacity="0.16000000000000003"/>
    <stop offset="1" stop-color="#0b1220" stop-opacity="0"/>
  </radialGradient></defs>
  <ellipse cx="256" cy="388" rx="126" ry="24" fill="url(#giftcard-sh1)"/>
  <defs>
    <linearGradient id="giftcard-g2" x1="0.15" y1="0" x2="0.85" y2="1">
      <stop offset="0" stop-color="#aa95da"/>
      <stop offset="0.5" stop-color="#6c48c0"/>
      <stop offset="1" stop-color="#563a9a"/>
    </linearGradient>
    <clipPath id="giftcard-c3"><path d="M177 124H347A20 20 0 0 1 367 144V244A20 20 0 0 1 347 264H177A20 20 0 0 1 157 244V144A20 20 0 0 1 177 124Z"/></clipPath>
    <radialGradient id="giftcard-p4" cx="0.5" cy="0.5" r="0.5">
      <stop offset="0" stop-color="#fff" stop-opacity="0.72"/>
      <stop offset="1" stop-color="#fff" stop-opacity="0"/>
    </radialGradient>
  </defs>
  <defs><path id="giftcard-s5" d="M177 124H347A20 20 0 0 1 367 144V244A20 20 0 0 1 347 264H177A20 20 0 0 1 157 244V144A20 20 0 0 1 177 124Z"/></defs><use href="#giftcard-s5" y="16" fill="#312056"/><use href="#giftcard-s5" y="15" fill="#332159"/><use href="#giftcard-s5" y="14" fill="#35235d"/><use href="#giftcard-s5" y="13" fill="#362460"/><use href="#giftcard-s5" y="12" fill="#382563"/><use href="#giftcard-s5" y="11" fill="#3a2666"/><use href="#giftcard-s5" y="10" fill="#3c286a"/><use href="#giftcard-s5" y="9" fill="#3e296d"/><use href="#giftcard-s5" y="8" fill="#402a70"/><use href="#giftcard-s5" y="7" fill="#412b73"/><use href="#giftcard-s5" y="6" fill="#432d77"/><use href="#giftcard-s5" y="5" fill="#452e7a"/><use href="#giftcard-s5" y="4" fill="#472f7d"/><use href="#giftcard-s5" y="3" fill="#493080"/><use href="#giftcard-s5" y="2" fill="#4a3284"/><use href="#giftcard-s5" y="1" fill="#4c3387"/>
  <path d="M177 124H347A20 20 0 0 1 367 144V244A20 20 0 0 1 347 264H177A20 20 0 0 1 157 244V144A20 20 0 0 1 177 124Z" fill="url(#giftcard-g2)"/>
  <path d="M177 124H347A20 20 0 0 1 367 144V244A20 20 0 0 1 347 264H177A20 20 0 0 1 157 244V144A20 20 0 0 1 177 124Z" fill="none" stroke="#bdade3" stroke-opacity="0.75" stroke-width="3"/>
  
  <defs>
    <linearGradient id="giftcard-g6" x1="0.15" y1="0" x2="0.85" y2="1">
      <stop offset="0" stop-color="#bca0fa"/>
      <stop offset="0.5" stop-color="#8b5cf6"/>
      <stop offset="1" stop-color="#6f4ac5"/>
    </linearGradient>
    <clipPath id="giftcard-c7"><path d="M155 158H357A24 24 0 0 1 381 182V294A24 24 0 0 1 357 318H155A24 24 0 0 1 131 294V182A24 24 0 0 1 155 158Z"/></clipPath>
    <radialGradient id="giftcard-p8" cx="0.5" cy="0.5" r="0.5">
      <stop offset="0" stop-color="#fff" stop-opacity="0.72"/>
      <stop offset="1" stop-color="#fff" stop-opacity="0"/>
    </radialGradient>
  </defs>
  <defs><path id="giftcard-s9" d="M155 158H357A24 24 0 0 1 381 182V294A24 24 0 0 1 357 318H155A24 24 0 0 1 131 294V182A24 24 0 0 1 155 158Z"/></defs><use href="#giftcard-s9" y="26" fill="#3f296f"/><use href="#giftcard-s9" y="25" fill="#402a72"/><use href="#giftcard-s9" y="24" fill="#422b74"/><use href="#giftcard-s9" y="23" fill="#432c77"/><use href="#giftcard-s9" y="22" fill="#452d79"/><use href="#giftcard-s9" y="21" fill="#462e7c"/><use href="#giftcard-s9" y="20" fill="#482f7e"/><use href="#giftcard-s9" y="19" fill="#493081"/><use href="#giftcard-s9" y="18" fill="#4a3183"/><use href="#giftcard-s9" y="17" fill="#4c3286"/><use href="#giftcard-s9" y="16" fill="#4d3388"/><use href="#giftcard-s9" y="15" fill="#4f348b"/><use href="#giftcard-s9" y="14" fill="#50358d"/><use href="#giftcard-s9" y="13" fill="#523690"/><use href="#giftcard-s9" y="12" fill="#533693"/><use href="#giftcard-s9" y="11" fill="#543795"/><use href="#giftcard-s9" y="10" fill="#563898"/><use href="#giftcard-s9" y="9" fill="#57399a"/><use href="#giftcard-s9" y="8" fill="#593a9d"/><use href="#giftcard-s9" y="7" fill="#5a3b9f"/><use href="#giftcard-s9" y="6" fill="#5b3ca2"/><use href="#giftcard-s9" y="5" fill="#5d3da4"/><use href="#giftcard-s9" y="4" fill="#5e3ea7"/><use href="#giftcard-s9" y="3" fill="#603fa9"/><use href="#giftcard-s9" y="2" fill="#6140ac"/><use href="#giftcard-s9" y="1" fill="#6341ae"/>
  <path d="M155 158H357A24 24 0 0 1 381 182V294A24 24 0 0 1 357 318H155A24 24 0 0 1 131 294V182A24 24 0 0 1 155 158Z" fill="url(#giftcard-g6)"/>
  <path d="M155 158H357A24 24 0 0 1 381 182V294A24 24 0 0 1 357 318H155A24 24 0 0 1 131 294V182A24 24 0 0 1 155 158Z" fill="none" stroke="#cbb6fb" stroke-opacity="0.75" stroke-width="3"/>
  <g clip-path="url(#giftcard-c7)"><ellipse cx="216" cy="172" rx="96" ry="54"
      fill="url(#giftcard-p8)" transform="rotate(-24 216 172)"/></g><g>
    <rect x="239" y="158" width="34" height="160" fill="#f5c451" opacity="0.95"/>
    <rect x="131" y="221" width="250" height="34" fill="#f5c451" opacity="0.95"/>
    <rect x="239" y="158" width="12" height="160" fill="#fff" opacity="0.25"/>
  </g>
</svg>
