<svg xmlns="http://www.w3.org/2000/svg" viewBox="0 0 512 512" width="512" height="512" fill="none">

  <defs><radialGradient id="psplus-sh2" cx="0.5" cy="0.5" r="0.5">
    <stop offset="0" stop-color="#0b1220" stop-opacity="0.4"/>
    <stop offset="0.6" stop-color="#0b1220" stop-opacity="0.16000000000000003"/>
    <stop offset="1" stop-color="#0b1220" stop-opacity="0"/>
  </radialGradient></defs>
  <ellipse cx="256" cy="388" rx="132" ry="24" fill="url(#psplus-sh2)"/><mask id="psplus-vm1" maskUnits="userSpaceOnUse" x="0" y="0" width="512" height="512">
      <rect x="0" y="0" width="512" height="512" fill="#fff"/>
      <circle cx="290.84" cy="152" r="22" fill="#000"/>
      <circle cx="290.84" cy="324" r="22" fill="#000"/>
    </mask>
    <g mask="url(#psplus-vm1)">
  <defs>
    <linearGradient id="psplus-g3" x1="0.15" y1="0" x2="0.85" y2="1">
      <stop offset="0" stop-color="#7dabe4"/>
      <stop offset="0.5" stop-color="#1f6fd0"/>
      <stop offset="1" stop-color="#1959a6"/>
    </linearGradient>
    <clipPath id="psplus-c4"><path d="M146 152H366A24 24 0 0 1 390 176V300A24 24 0 0 1 366 324H146A24 24 0 0 1 122 300V176A24 24 0 0 1 146 152Z"/></clipPath>
    <radialGradient id="psplus-p5" cx="0.5" cy="0.5" r="0.5">
      <stop offset="0" stop-color="#fff" stop-opacity="0.72"/>
      <stop offset="1" stop-color="#fff" stop-opacity="0"/>
    </radialGradient>
  </defs>
  <defs><path id="psplus-s6" d="M146 152H366A24 24 0 0 1 390 176V300A24 24 0 0 1 366 324H146A24 24 0 0 1 122 300V176A24 24 0 0 1 146 152Z"/></defs><use href="#psplus-s6" y="24" fill="#0e325e"/><use href="#psplus-s6" y="23" fill="#0e3360"/><use href="#psplus-s6" y="22" fill="#0f3563"/><use href="#psplus-s6" y="21" fill="#0f3665"/><use href="#psplus-s6" y="20" fill="#0f3767"/><use href="#psplus-s6" y="19" fill="#10386a"/><use href="#psplus-s6" y="18" fill="#103a6c"/><use href="#psplus-s6" y="17" fill="#103b6e"/><use href="#psplus-s6" y="16" fill="#113c71"/><use href="#psplus-s6" y="15" fill="#113d73"/><use href="#psplus-s6" y="14" fill="#113f75"/><use href="#psplus-s6" y="13" fill="#124078"/><use href="#psplus-s6" y="12" fill="#12417a"/><use href="#psplus-s6" y="11" fill="#12427c"/><use href="#psplus-s6" y="10" fill="#13447f"/><use href="#psplus-s6" y="9" fill="#134581"/><use href="#psplus-s6" y="8" fill="#134683"/><use href="#psplus-s6" y="7" fill="#144786"/><use href="#psplus-s6" y="6" fill="#144988"/><use href="#psplus-s6" y="5" fill="#144a8a"/><use href="#psplus-s6" y="4" fill="#154b8d"/><use href="#psplus-s6" y="3" fill="#154c8f"/><use href="#psplus-s6" y="2" fill="#154e91"/><use href="#psplus-s6" y="1" fill="#164f94"/>
  <path d="M146 152H366A24 24 0 0 1 390 176V300A24 24 0 0 1 366 324H146A24 24 0 0 1 122 300V176A24 24 0 0 1 146 152Z" fill="url(#psplus-g3)"/>
  <path d="M146 152H366A24 24 0 0 1 390 176V300A24 24 0 0 1 366 324H146A24 24 0 0 1 122 300V176A24 24 0 0 1 146 152Z" fill="none" stroke="#9abeea" stroke-opacity="0.75" stroke-width="3"/>
  <g clip-path="url(#psplus-c4)"><ellipse cx="216" cy="172" rx="96" ry="54"
      fill="url(#psplus-p5)" transform="rotate(-24 216 172)"/></g></g><rect x="148" y="194" width="80.4" height="14" rx="7" fill="#eaf3ff" opacity=".92"/>
          <rect x="148" y="226" width="53.6" height="10" rx="5" fill="#eaf3ff" opacity=".6"/><g><rect x="308.84" y="192" width="8" height="92" rx="2" fill="#eaf3ff" opacity=".8"/><rect x="321.84" y="192" width="5" height="92" rx="2" fill="#eaf3ff" opacity=".8"/><rect x="334.84" y="192" width="8" height="92" rx="2" fill="#eaf3ff" opacity=".8"/><rect x="347.84" y="192" width="5" height="92" rx="2" fill="#eaf3ff" opacity=".8"/><rect x="360.84" y="192" width="8" height="92" rx="2" fill="#eaf3ff" opacity=".8"/><rect x="373.84" y="192" width="5" height="92" rx="2" fill="#eaf3ff" opacity=".8"/></g>
</svg>
