<svg xmlns="http://www.w3.org/2000/svg" viewBox="0 0 700 600" width="700" height="600" role="img" aria-label="21,000 CP — Call of Duty">
<title>21,000 CP — Call of Duty</title>
<defs>
<linearGradient id="abase" gradientUnits="userSpaceOnUse" x1="0" y1="0" x2="700" y2="600">
<stop offset="0" stop-color="#07060f"/><stop offset=".55" stop-color="#0e0b1e"/><stop offset="1" stop-color="#07060f"/></linearGradient>
<radialGradient id="abloom" gradientUnits="userSpaceOnUse" cx="350" cy="236" r="400">
<stop offset="0" stop-color="#a855f7" stop-opacity=".42"/>
<stop offset=".45" stop-color="#6366f1" stop-opacity=".20"/>
<stop offset="1" stop-color="#6366f1" stop-opacity="0"/></radialGradient>
<radialGradient id="acat" gradientUnits="userSpaceOnUse" cx="574" cy="108" r="320">
<stop offset="0" stop-color="#f97316" stop-opacity=".22"/>
<stop offset="1" stop-color="#f97316" stop-opacity="0"/></radialGradient>
<radialGradient id="avig" gradientUnits="userSpaceOnUse" cx="350" cy="300" r="504">
<stop offset=".5" stop-color="#04030c" stop-opacity="0"/><stop offset="1" stop-color="#04030c" stop-opacity=".62"/></radialGradient>
<radialGradient id="afade" gradientUnits="userSpaceOnUse" cx="350" cy="252" r="434">
<stop offset="0" stop-color="#fff" stop-opacity=".85"/><stop offset="1" stop-color="#fff" stop-opacity="0"/></radialGradient>
<mask id="amfade"><rect width="700" height="600" fill="url(#afade)"/></mask>
<pattern id="agrid" width="70" height="70" patternUnits="userSpaceOnUse">
<path d="M70 0V70M0 70H70" fill="none" stroke="#c7d2fe" stroke-width="1.1"/></pattern>
<linearGradient id="anum" x1="0" y1="0" x2="0" y2="1">
<stop offset="0" stop-color="#ffffff"/><stop offset="1" stop-color="#cdc2f7"/></linearGradient>
<linearGradient id="arim" gradientUnits="userSpaceOnUse" x1="0" y1="0" x2="700" y2="0">
<stop offset="0" stop-color="#6366f1"/><stop offset=".5" stop-color="#a855f7"/><stop offset="1" stop-color="#f97316"/></linearGradient>
<filter id="ahalo" x="-40%" y="-70%" width="180%" height="240%"><feGaussianBlur stdDeviation="18"/></filter>
</defs>
<rect width="700" height="600" fill="url(#abase)"/>
<rect width="700" height="600" fill="url(#abloom)"/>
<rect width="700" height="600" fill="url(#acat)"/>
<rect width="700" height="600" fill="url(#agrid)" mask="url(#amfade)" opacity=".11"/>
<rect width="700" height="600" fill="url(#avig)"/>
<path transform="translate(322 44) scale(1.7)" opacity="0.08" fill="#ddd6fe" d="M9 6 L4.6 18.6 h5.1 l-2.2 8.4 L23.4 12.2 h-6.4 l2.2-6.2 z"/>
<ellipse cx="350" cy="344" rx="132" ry="17" fill="#f97316" opacity=".16"/>
<circle cx="350" cy="238" r="122" fill="none" stroke="url(#arim)" stroke-width="3" opacity=".6"/>
<svg x="284.88" y="176.66" width="130.24" height="122.68" viewBox="96 118 310 292" preserveAspectRatio="xMidYMid meet" overflow="visible">

  <defs><radialGradient id="cod-sh1" cx="0.5" cy="0.5" r="0.5">
    <stop offset="0" stop-color="#0b1220" stop-opacity="0.4"/>
    <stop offset="0.6" stop-color="#0b1220" stop-opacity="0.16000000000000003"/>
    <stop offset="1" stop-color="#0b1220" stop-opacity="0"/>
  </radialGradient></defs>
  <ellipse cx="256" cy="388" rx="132" ry="26" fill="url(#cod-sh1)"/>
  <defs>
    <linearGradient id="cod-g2" x1="0.15" y1="0" x2="0.85" y2="1">
      <stop offset="0" stop-color="#e5b081"/>
      <stop offset="0.5" stop-color="#d37625"/>
      <stop offset="1" stop-color="#a95e1e"/>
    </linearGradient>
    <clipPath id="cod-c3"><path d="M98 296a70 70 0 1 0 140 0a70 70 0 1 0 -140 0Z"/></clipPath>
    <radialGradient id="cod-p4" cx="0.5" cy="0.5" r="0.5">
      <stop offset="0" stop-color="#fff" stop-opacity="0.72"/>
      <stop offset="1" stop-color="#fff" stop-opacity="0"/>
    </radialGradient>
  </defs>
  <defs><path id="cod-s5" d="M98 296a70 70 0 1 0 140 0a70 70 0 1 0 -140 0Z"/></defs><use href="#cod-s5" y="20" fill="#5f3511"/><use href="#cod-s5" y="19" fill="#623712"/><use href="#cod-s5" y="18" fill="#653812"/><use href="#cod-s5" y="17" fill="#683a13"/><use href="#cod-s5" y="16" fill="#6a3b13"/><use href="#cod-s5" y="15" fill="#6d3d14"/><use href="#cod-s5" y="14" fill="#703f14"/><use href="#cod-s5" y="13" fill="#734015"/><use href="#cod-s5" y="12" fill="#764215"/><use href="#cod-s5" y="11" fill="#794316"/><use href="#cod-s5" y="10" fill="#7c4516"/><use href="#cod-s5" y="9" fill="#7e4717"/><use href="#cod-s5" y="8" fill="#814817"/><use href="#cod-s5" y="7" fill="#844a18"/><use href="#cod-s5" y="6" fill="#874b18"/><use href="#cod-s5" y="5" fill="#8a4d19"/><use href="#cod-s5" y="4" fill="#8d4f19"/><use href="#cod-s5" y="3" fill="#8f501a"/><use href="#cod-s5" y="2" fill="#92521a"/><use href="#cod-s5" y="1" fill="#95531b"/>
  <path d="M98 296a70 70 0 1 0 140 0a70 70 0 1 0 -140 0Z" fill="url(#cod-g2)"/>
  <path d="M98 296a70 70 0 1 0 140 0a70 70 0 1 0 -140 0Z" fill="none" stroke="#ebc19d" stroke-opacity="0.75" stroke-width="3"/>
  
  <defs>
    <linearGradient id="cod-g6" x1="0.15" y1="0" x2="0.85" y2="1">
      <stop offset="0" stop-color="#ddab7f"/>
      <stop offset="0.5" stop-color="#c56e22"/>
      <stop offset="1" stop-color="#9e581b"/>
    </linearGradient>
    <clipPath id="cod-c7"><path d="M288 304a58 58 0 1 0 116 0a58 58 0 1 0 -116 0Z"/></clipPath>
    <radialGradient id="cod-p8" cx="0.5" cy="0.5" r="0.5">
      <stop offset="0" stop-color="#fff" stop-opacity="0.72"/>
      <stop offset="1" stop-color="#fff" stop-opacity="0"/>
    </radialGradient>
  </defs>
  <defs><path id="cod-s9" d="M288 304a58 58 0 1 0 116 0a58 58 0 1 0 -116 0Z"/></defs><use href="#cod-s9" y="16" fill="#59310f"/><use href="#cod-s9" y="15" fill="#5c3310"/><use href="#cod-s9" y="14" fill="#603510"/><use href="#cod-s9" y="13" fill="#633711"/><use href="#cod-s9" y="12" fill="#663911"/><use href="#cod-s9" y="11" fill="#6a3a12"/><use href="#cod-s9" y="10" fill="#6d3c12"/><use href="#cod-s9" y="9" fill="#703e13"/><use href="#cod-s9" y="8" fill="#744014"/><use href="#cod-s9" y="7" fill="#774214"/><use href="#cod-s9" y="6" fill="#7a4415"/><use href="#cod-s9" y="5" fill="#7d4615"/><use href="#cod-s9" y="4" fill="#814816"/><use href="#cod-s9" y="3" fill="#844916"/><use href="#cod-s9" y="2" fill="#874b17"/><use href="#cod-s9" y="1" fill="#8b4d17"/>
  <path d="M288 304a58 58 0 1 0 116 0a58 58 0 1 0 -116 0Z" fill="url(#cod-g6)"/>
  <path d="M288 304a58 58 0 1 0 116 0a58 58 0 1 0 -116 0Z" fill="none" stroke="#e5be9c" stroke-opacity="0.75" stroke-width="3"/>
  
  <defs>
    <linearGradient id="cod-g10" x1="0.15" y1="0" x2="0.85" y2="1">
      <stop offset="0" stop-color="#f6b983"/>
      <stop offset="0.5" stop-color="#f0862a"/>
      <stop offset="1" stop-color="#c06b22"/>
    </linearGradient>
    <clipPath id="cod-c11"><path d="M138 238a118 118 0 1 0 236 0a118 118 0 1 0 -236 0Z"/></clipPath>
    <radialGradient id="cod-p12" cx="0.5" cy="0.5" r="0.5">
      <stop offset="0" stop-color="#fff" stop-opacity="0.72"/>
      <stop offset="1" stop-color="#fff" stop-opacity="0"/>
    </radialGradient>
  </defs>
  <defs><path id="cod-s13" d="M138 238a118 118 0 1 0 236 0a118 118 0 1 0 -236 0Z"/></defs><use href="#cod-s13" y="30" fill="#6c3c13"/><use href="#cod-s13" y="29" fill="#6e3d13"/><use href="#cod-s13" y="28" fill="#703e14"/><use href="#cod-s13" y="27" fill="#734014"/><use href="#cod-s13" y="26" fill="#754114"/><use href="#cod-s13" y="25" fill="#774215"/><use href="#cod-s13" y="24" fill="#794315"/><use href="#cod-s13" y="23" fill="#7b4416"/><use href="#cod-s13" y="22" fill="#7d4616"/><use href="#cod-s13" y="21" fill="#804716"/><use href="#cod-s13" y="20" fill="#824817"/><use href="#cod-s13" y="19" fill="#844917"/><use href="#cod-s13" y="18" fill="#864a17"/><use href="#cod-s13" y="17" fill="#884c18"/><use href="#cod-s13" y="16" fill="#8a4d18"/><use href="#cod-s13" y="15" fill="#8d4e19"/><use href="#cod-s13" y="14" fill="#8f4f19"/><use href="#cod-s13" y="13" fill="#915019"/><use href="#cod-s13" y="12" fill="#93521a"/><use href="#cod-s13" y="11" fill="#95531a"/><use href="#cod-s13" y="10" fill="#97541a"/><use href="#cod-s13" y="9" fill="#9a551b"/><use href="#cod-s13" y="8" fill="#9c561b"/><use href="#cod-s13" y="7" fill="#9e581b"/><use href="#cod-s13" y="6" fill="#a0591c"/><use href="#cod-s13" y="5" fill="#a25a1c"/><use href="#cod-s13" y="4" fill="#a45b1d"/><use href="#cod-s13" y="3" fill="#a75c1d"/><use href="#cod-s13" y="2" fill="#a95e1d"/><use href="#cod-s13" y="1" fill="#ab5f1e"/>
  <path d="M138 238a118 118 0 1 0 236 0a118 118 0 1 0 -236 0Z" fill="url(#cod-g10)"/>
  <path d="M138 238a118 118 0 1 0 236 0a118 118 0 1 0 -236 0Z" fill="none" stroke="#f8c99f" stroke-opacity="0.75" stroke-width="3"/>
  <g clip-path="url(#cod-c11)"><ellipse cx="216" cy="172" rx="96" ry="54"
      fill="url(#cod-p12)" transform="rotate(-24 216 172)"/></g><path d="M158 238a98 98 0 1 0 196 0a98 98 0 1 0 -196 0Z" fill="none" stroke="#f6b67f" stroke-opacity="0.55" stroke-width="5"/><g fill="none" stroke="#fff5e8" stroke-width="12" opacity="0.95">
    <circle cx="256" cy="238" r="52"/><circle cx="256" cy="238" r="22"/>
    <path d="M256 164v26M256 286v26M182 238h26M304 238h26" stroke-linecap="round"/>
  </g>
</svg>
<text x="350" y="456" text-anchor="middle" font-family="Inter, system-ui, sans-serif" font-size="112" font-weight="800" letter-spacing="-1" fill="#a855f7" filter="url(#ahalo)" opacity=".55">21,000</text>
<text x="350" y="456" text-anchor="middle" font-family="Inter, system-ui, sans-serif" font-size="112" font-weight="800" letter-spacing="-1" fill="url(#anum)">21,000</text>

<rect x="0" y="595" width="700" height="5" fill="url(#arim)" opacity=".75"/>
</svg>