<svg xmlns="http://www.w3.org/2000/svg" viewBox="0 0 1600 900" width="1600" height="900" role="img" aria-label="ForgeMarket — Discord Nitro — 1 Month">
<title>ForgeMarket — Discord Nitro — 1 Month</title>
<defs>
<linearGradient id="bbase" gradientUnits="userSpaceOnUse" x1="0" y1="0" x2="1600" y2="900">
<stop offset="0" stop-color="#07060f"/><stop offset=".55" stop-color="#0e0b1e"/><stop offset="1" stop-color="#07060f"/></linearGradient>
<radialGradient id="bbloom" gradientUnits="userSpaceOnUse" cx="1160" cy="420" r="700">
<stop offset="0" stop-color="#a855f7" stop-opacity=".42"/>
<stop offset=".45" stop-color="#6366f1" stop-opacity=".20"/>
<stop offset="1" stop-color="#6366f1" stop-opacity="0"/></radialGradient>
<radialGradient id="bcat" gradientUnits="userSpaceOnUse" cx="1312" cy="162" r="560">
<stop offset="0" stop-color="#818cf8" stop-opacity=".22"/>
<stop offset="1" stop-color="#818cf8" stop-opacity="0"/></radialGradient>
<radialGradient id="bvig" gradientUnits="userSpaceOnUse" cx="800" cy="450" r="1152">
<stop offset=".5" stop-color="#04030c" stop-opacity="0"/><stop offset="1" stop-color="#04030c" stop-opacity=".62"/></radialGradient>
<radialGradient id="bfade" gradientUnits="userSpaceOnUse" cx="800" cy="378" r="992">
<stop offset="0" stop-color="#fff" stop-opacity=".85"/><stop offset="1" stop-color="#fff" stop-opacity="0"/></radialGradient>
<mask id="bmfade"><rect width="1600" height="900" fill="url(#bfade)"/></mask>
<pattern id="bgrid" width="160" height="160" patternUnits="userSpaceOnUse">
<path d="M160 0V160M0 160H160" fill="none" stroke="#c7d2fe" stroke-width="1.1"/></pattern>
<linearGradient id="bnum" x1="0" y1="0" x2="0" y2="1">
<stop offset="0" stop-color="#ffffff"/><stop offset="1" stop-color="#cdc2f7"/></linearGradient>
<linearGradient id="brim" gradientUnits="userSpaceOnUse" x1="0" y1="0" x2="1600" y2="0">
<stop offset="0" stop-color="#6366f1"/><stop offset=".5" stop-color="#a855f7"/><stop offset="1" stop-color="#818cf8"/></linearGradient>
<filter id="bhalo" x="-40%" y="-70%" width="180%" height="240%"><feGaussianBlur stdDeviation="40"/></filter>
</defs>
<rect width="1600" height="900" fill="url(#bbase)"/>
<rect width="1600" height="900" fill="url(#bbloom)"/>
<rect width="1600" height="900" fill="url(#bcat)"/>
<rect width="1600" height="900" fill="url(#bgrid)" mask="url(#bmfade)" opacity=".11"/>
<rect width="1600" height="900" fill="url(#bvig)"/>
<g><rect x="96" y="74" width="76" height="76" rx="22" fill="url(#brim)"/><path transform="translate(101 73) scale(2.32)" opacity="1" fill="#ffffff" d="M9 6 L4.6 18.6 h5.1 l-2.2 8.4 L23.4 12.2 h-6.4 l2.2-6.2 z"/>
<text x="192" y="130" font-family="Inter, system-ui, sans-serif" font-size="50" font-weight="800" letter-spacing="1" fill="#f5f3ff">ForgeMarket</text></g>
<text x="96" y="300" font-family="Inter, system-ui, sans-serif" font-size="44" font-weight="700" letter-spacing="11" fill="#818cf8">DISCORD NITRO</text>
<text x="96" y="500" font-family="Inter, system-ui, sans-serif" font-size="196" font-weight="800" letter-spacing="-4" fill="#a855f7" filter="url(#bhalo)" opacity=".6">1</text>
<text x="96" y="500" font-family="Inter, system-ui, sans-serif" font-size="196" font-weight="800" letter-spacing="-4" fill="url(#bnum)">1</text>
<text x="96" y="566" font-family="Inter, system-ui, sans-serif" font-size="44" font-weight="700" letter-spacing="10" fill="#a9a3c9">MONTH</text>
<text x="96" y="640" font-family="Inter, system-ui, sans-serif" font-size="56" font-weight="600" fill="#c3cbf0">Discord Nitro — 1 Month</text>
<g><rect x="96" y="682" width="300" height="94" rx="26" fill="#140f2e" fill-opacity=".85" stroke="url(#brim)" stroke-width="3"/>
<text x="126" y="744" font-family="Inter, system-ui, sans-serif" font-size="56" font-weight="800" fill="#f5f3ff">€8,99</text></g>
<ellipse cx="1160" cy="640" rx="290" ry="34" fill="#818cf8" opacity=".18"/>
<circle cx="1160" cy="450" r="228" fill="none" stroke="url(#brim)" stroke-width="7" opacity=".8"/>
<svg x="1070.89" y="339" width="178.23" height="222" viewBox="142 124 228 284" preserveAspectRatio="xMidYMid meet" overflow="visible">

  <defs><radialGradient id="discordnitro-sh1" cx="0.5" cy="0.5" r="0.5">
    <stop offset="0" stop-color="#0b1220" stop-opacity="0.4"/>
    <stop offset="0.6" stop-color="#0b1220" stop-opacity="0.16000000000000003"/>
    <stop offset="1" stop-color="#0b1220" stop-opacity="0"/>
  </radialGradient></defs>
  <ellipse cx="256" cy="388" rx="118" ry="24" fill="url(#discordnitro-sh1)"/>
  <defs>
    <linearGradient id="discordnitro-g2" x1="0.15" y1="0" x2="0.85" y2="1">
      <stop offset="0" stop-color="#9ea6f7"/>
      <stop offset="0.5" stop-color="#5865F2"/>
      <stop offset="1" stop-color="#4651c2"/>
    </linearGradient>
    <clipPath id="discordnitro-c3"><path d="M196 126H316A52 52 0 0 1 368 178V298A52 52 0 0 1 316 350H196A52 52 0 0 1 144 298V178A52 52 0 0 1 196 126Z"/></clipPath>
    <radialGradient id="discordnitro-p4" cx="0.5" cy="0.5" r="0.5">
      <stop offset="0" stop-color="#fff" stop-opacity="0.72"/>
      <stop offset="1" stop-color="#fff" stop-opacity="0"/>
    </radialGradient>
  </defs>
  <defs><path id="discordnitro-s5" d="M196 126H316A52 52 0 0 1 368 178V298A52 52 0 0 1 316 350H196A52 52 0 0 1 144 298V178A52 52 0 0 1 196 126Z"/></defs><use href="#discordnitro-s5" y="26" fill="#282d6d"/><use href="#discordnitro-s5" y="25" fill="#292e70"/><use href="#discordnitro-s5" y="24" fill="#2a2f72"/><use href="#discordnitro-s5" y="23" fill="#2b3075"/><use href="#discordnitro-s5" y="22" fill="#2c3177"/><use href="#discordnitro-s5" y="21" fill="#2c327a"/><use href="#discordnitro-s5" y="20" fill="#2d337c"/><use href="#discordnitro-s5" y="19" fill="#2e357f"/><use href="#discordnitro-s5" y="18" fill="#2f3681"/><use href="#discordnitro-s5" y="17" fill="#303784"/><use href="#discordnitro-s5" y="16" fill="#313886"/><use href="#discordnitro-s5" y="15" fill="#323989"/><use href="#discordnitro-s5" y="14" fill="#333a8b"/><use href="#discordnitro-s5" y="13" fill="#343b8e"/><use href="#discordnitro-s5" y="12" fill="#343c90"/><use href="#discordnitro-s5" y="11" fill="#353d93"/><use href="#discordnitro-s5" y="10" fill="#363e95"/><use href="#discordnitro-s5" y="9" fill="#373f98"/><use href="#discordnitro-s5" y="8" fill="#38409a"/><use href="#discordnitro-s5" y="7" fill="#39419d"/><use href="#discordnitro-s5" y="6" fill="#3a439f"/><use href="#discordnitro-s5" y="5" fill="#3b44a2"/><use href="#discordnitro-s5" y="4" fill="#3b45a4"/><use href="#discordnitro-s5" y="3" fill="#3c46a7"/><use href="#discordnitro-s5" y="2" fill="#3d47a9"/><use href="#discordnitro-s5" y="1" fill="#3e48ac"/>
  <path d="M196 126H316A52 52 0 0 1 368 178V298A52 52 0 0 1 316 350H196A52 52 0 0 1 144 298V178A52 52 0 0 1 196 126Z" fill="url(#discordnitro-g2)"/>
  <path d="M196 126H316A52 52 0 0 1 368 178V298A52 52 0 0 1 316 350H196A52 52 0 0 1 144 298V178A52 52 0 0 1 196 126Z" fill="none" stroke="#b4baf9" stroke-opacity="0.75" stroke-width="3"/>
  <g clip-path="url(#discordnitro-c3)"><ellipse cx="216" cy="172" rx="96" ry="54"
      fill="url(#discordnitro-p4)" transform="rotate(-24 216 172)"/></g><path d="M268 176L216 246L252 246L242 302L298 228L258 228Z"
    fill="#f2f4ff" opacity="0.95"/>
</svg>
<text x="1504" y="846" text-anchor="end" font-family="Inter, system-ui, sans-serif" font-size="40" font-weight="600" letter-spacing="2" fill="#8e9bd9">forgemarket.nl</text>
<rect x="0" y="893" width="1600" height="7" fill="url(#brim)"/>
</svg>